<?xml version="1.0" encoding="iso-8859-1"?>
<!-- Generator: Adobe Illustrator 16.0.0, SVG Export Plug-In . SVG Version: 6.00 Build 0)  -->
<!DOCTYPE svg PUBLIC "-//W3C//DTD SVG 1.1//EN" "http://www.w3.org/Graphics/SVG/1.1/DTD/svg11.dtd">
<svg version="1.1" id="Capa_1" xmlns="http://www.w3.org/2000/svg" xmlns:xlink="http://www.w3.org/1999/xlink" x="0px" y="0px" viewBox="0 0 45.836 45.836" style="enable-background:new 0 0 45.836 45.836;"
	 xml:space="preserve">
<g>
	<g>
		<polygon style="fill:#ffffff;" points="10.553,21.354 11.275,24.635 14.858,22.918 14.912,22.918 14.912,37.827 19.195,37.827 19.195,19.034 
			15.523,19.034"/>
		<path style="fill:#ffffff;" d="M33.013,26.854c-1.326-0.953-3.146-1.356-4.938-1.356c-0.463,0-0.811,0.007-1.215,0.064l0.404-2.881h7.312v-3.646H24.202
			l-1.24,9.86c0.781-0.116,1.501-0.168,2.541-0.168c3.756,0,5.286,1.188,5.286,3.123c0,1.993-1.937,2.86-3.755,2.86
			c-1.704,0-3.408-0.52-4.245-0.923l-0.781,3.293c1.041,0.548,2.948,1.068,5.229,1.068c5.055,0,8.06-3.091,8.06-6.585
			C35.296,29.366,34.43,27.807,33.013,26.854z"/>
		<path style="fill:#ffffff;" d="M40.446,2.844v2.292c0,2.311-1.896,4.223-4.205,4.223h-0.215c-2.31,0-4.225-1.913-4.225-4.223V2.54h-4.6v2.596
			c0,2.311-1.914,4.223-4.224,4.223h-0.212c-2.312,0-4.208-1.913-4.208-4.223V2.54H13.88v2.596c0,2.311-1.853,4.223-4.163,4.223
			H9.503c-2.311,0-4.188-1.913-4.188-4.223V2.879C2.619,3.764,0.716,6.286,0.716,9.258v29.886c0,3.711,2.997,6.691,6.708,6.691
			h30.997c3.711,0,6.699-2.98,6.699-6.691V9.258C45.124,6.248,43.142,3.697,40.446,2.844z M41.794,38.527
			c0,2.148-1.727,3.898-3.875,3.898H7.93c-2.148,0-3.881-1.75-3.881-3.898V17.295c0-1.463,1.176-2.624,2.64-2.624h32.472
			c1.464,0,2.634,1.161,2.634,2.624L41.794,38.527L41.794,38.527z"/>
		<path style="fill:#ffffff;" d="M9.506,7.296h0.213c0.664,0,1.254-0.28,1.655-0.747c0.331-0.384,0.525-0.867,0.525-1.414l0,0V2.164l0,0
			c0-0.6-0.235-1.144-0.626-1.54c-0.004-0.003-0.004-0.008-0.007-0.011c-0.003-0.003-0.004,0.012-0.006,0.009
			c-0.397-0.393-0.94-0.62-1.542-0.62H9.505c-0.603,0-1.147,0.227-1.544,0.62C7.96,0.625,7.958,0.619,7.955,0.621
			C7.951,0.625,7.942,0.624,7.939,0.626C7.547,1.023,7.3,1.562,7.3,2.163l0,0v2.973l0,0c0,0.546,0.206,1.03,0.537,1.414
			C8.239,7.018,8.841,7.296,9.506,7.296z"/>
		<path style="fill:#ffffff;" d="M21.515,6.947c0.004,0.002,0.015,0.005,0.018,0.007c0.006,0.004,0.018-0.008,0.023-0.004
			c0.347,0.229,0.764,0.347,1.211,0.347h0.001h0.212l0,0c0.376,0,0.729-0.078,1.037-0.245c0.004-0.001,0.006,0.006,0.01,0.004
			c0.006-0.004-0.002-0.004,0.006-0.009c0.672-0.375,1.111-1.088,1.111-1.912V2.163c0-0.713-0.326-1.347-0.854-1.748
			c-0.005-0.003-0.001-0.007-0.005-0.01l0.004,0.017c-0.365-0.274-0.815-0.419-1.308-0.419h-0.213c-0.567,0-1.083,0.199-1.472,0.552
			c-0.001,0-0.002-0.007-0.002-0.007c-0.005,0.004-0.024,0.004-0.028,0.008c-0.435,0.401-0.723,0.97-0.723,1.608v2.974
			C20.542,5.888,20.938,6.552,21.515,6.947z"/>
		<path style="fill:#ffffff;" d="M36.028,7.296h0.213c0.666,0,1.273-0.28,1.678-0.747c0.331-0.384,0.547-0.867,0.547-1.414l0,0V2.164l0,0
			c0-0.829-0.477-1.55-1.154-1.924c-0.005-0.002-0.015-0.004-0.018-0.006c-0.055-0.029-0.113-0.055-0.169-0.08
			c-0.011-0.004-0.021-0.008-0.028-0.012c-0.014-0.005-0.027-0.01-0.041-0.016c-0.021-0.008-0.04-0.016-0.061-0.023
			c-0.012-0.004-0.021-0.007-0.032-0.011c-0.022-0.008-0.047,0-0.069-0.007c-0.205-0.064-0.426-0.083-0.652-0.083h-0.213
			c-0.113,0-0.209-0.007-0.318,0.009c-1.055,0.161-1.846,1.055-1.846,2.152v2.974C33.864,6.347,34.817,7.296,36.028,7.296z"/>
	</g>
</g>
<g>
</g>
<g>
</g>
<g>
</g>
<g>
</g>
<g>
</g>
<g>
</g>
<g>
</g>
<g>
</g>
<g>
</g>
<g>
</g>
<g>
</g>
<g>
</g>
<g>
</g>
<g>
</g>
<g>
</g>
</svg>
