<?xml version="1.0" encoding="iso-8859-1"?>
<!-- Generator: Adobe Illustrator 16.0.0, SVG Export Plug-In . SVG Version: 6.00 Build 0)  -->
<!DOCTYPE svg PUBLIC "-//W3C//DTD SVG 1.1//EN" "http://www.w3.org/Graphics/SVG/1.1/DTD/svg11.dtd">
<svg version="1.1" id="Capa_1" xmlns="http://www.w3.org/2000/svg" xmlns:xlink="http://www.w3.org/1999/xlink" x="0px" y="0px" viewBox="0 0 275.61 275.61" style="enable-background:new 0 0 275.61 275.61;"
	 xml:space="preserve">
<g>
	<g>
		<path style="fill:#ffffff;" d="M13.56,151.358h16.979v27.293c0,8.728,7.083,15.812,15.814,15.812c2.737,0,5.276-0.761,7.517-1.988v7.658
			c0,8.737,7.084,15.816,15.819,15.816c8.728,0,15.814-7.084,15.814-15.816v-48.775h100.616v48.775
			c0,8.737,7.08,15.816,15.816,15.816c8.732,0,15.812-7.084,15.812-15.816v-7.668c2.244,1.232,4.788,1.988,7.522,1.988
			c8.737,0,15.817-7.075,15.817-15.812v-27.288h20.969c7.491,0,13.554-6.062,13.554-13.553c0-7.489-6.062-13.554-13.554-13.554
			h-20.969V96.963c0-8.732-7.08-15.814-15.817-15.814c-2.734,0-5.278,0.76-7.522,1.988v-7.666c0-8.734-7.08-15.812-15.812-15.812
			c-8.736,0-15.816,7.082-15.816,15.812v48.775H85.503V75.477c0-8.735-7.082-15.812-15.814-15.812
			c-8.729,0-15.819,7.083-15.819,15.812v7.661c-2.245-1.228-4.779-1.983-7.517-1.983c-8.732,0-15.814,7.078-15.814,15.814v27.284
			H13.56c-7.491,0-13.56,6.069-13.56,13.554C0,145.291,6.069,151.358,13.56,151.358z"/>
	</g>
</g>
<g>
</g>
<g>
</g>
<g>
</g>
<g>
</g>
<g>
</g>
<g>
</g>
<g>
</g>
<g>
</g>
<g>
</g>
<g>
</g>
<g>
</g>
<g>
</g>
<g>
</g>
<g>
</g>
<g>
</g>
</svg>
