<?xml version="1.0" encoding="iso-8859-1"?>
<!-- Generator: Adobe Illustrator 16.0.0, SVG Export Plug-In . SVG Version: 6.00 Build 0)  -->
<!DOCTYPE svg PUBLIC "-//W3C//DTD SVG 1.1//EN" "http://www.w3.org/Graphics/SVG/1.1/DTD/svg11.dtd">
<svg version="1.1" id="Capa_1" xmlns="http://www.w3.org/2000/svg" xmlns:xlink="http://www.w3.org/1999/xlink" x="0px" y="0px" viewBox="0 0 612 612" style="enable-background:new 0 0 612 612;" xml:space="preserve">
<g>
	<g id="Moon">
		<g>
			<path style="fill:#ffffff;" d="M604.851,370.662c-3.5-2.85-7.784-4.284-12.106-4.284c-3.213,0-6.445,0.803-9.371,2.429
				c-35.993,20.081-77.456,31.556-121.616,31.556c-138.159,0-250.117-111.958-250.117-250.116c0-44.16,11.475-85.642,31.556-121.635
				c3.825-6.866,3.099-15.376-1.855-21.477C237.651,2.543,232.124,0,226.405,0c-1.894,0-3.806,0.287-5.661,0.86
				C93.104,40.182,0.003,158.948,0.003,299.364C0.003,471.757,140.266,612,312.659,612c140.396,0,259.183-93.101,298.484-220.722
				C613.457,383.763,610.97,375.596,604.851,370.662z M312.659,554.625c-140.76,0-255.28-114.501-255.28-255.261
				c0-82.333,38.786-156.863,101.821-203.93c-3.27,18.035-4.934,36.395-4.934,54.812c0,169.543,137.93,307.491,307.492,307.491
				c18.437,0,36.777-1.663,54.812-4.934C469.503,515.858,394.992,554.625,312.659,554.625z"/>
		</g>
	</g>
</g>
<g>
</g>
<g>
</g>
<g>
</g>
<g>
</g>
<g>
</g>
<g>
</g>
<g>
</g>
<g>
</g>
<g>
</g>
<g>
</g>
<g>
</g>
<g>
</g>
<g>
</g>
<g>
</g>
<g>
</g>
</svg>
