<?xml version="1.0" encoding="iso-8859-1"?>
<!-- Generator: Adobe Illustrator 18.1.1, SVG Export Plug-In . SVG Version: 6.00 Build 0)  -->
<svg version="1.1" id="Capa_1" xmlns="http://www.w3.org/2000/svg" xmlns:xlink="http://www.w3.org/1999/xlink" x="0px" y="0px"
	 viewBox="0 0 11.952 11.952" style="enable-background:new 0 0 11.952 11.952;" xml:space="preserve">
<g>
	<path style="fill:#ffffff;" d="M10.5,7.654c-2.484,0-4.5-2.016-4.5-4.5c0-0.906,0.269-1.75,0.729-2.456
		C6.49,0.669,6.246,0.654,5.999,0.654c-0.549,0-1.08,0.073-1.585,0.212C1.886,1.556,0.023,3.86,0,6.602
		C1.496,7.35,2.754,8.504,3.631,9.92c0.585-0.173,1.204-0.266,1.845-0.266c1.658,0,3.172,0.622,4.322,1.645
		c1.158-0.947,1.955-2.32,2.154-3.884C11.496,7.569,11.007,7.654,10.5,7.654z"/>
</g>
<g>
</g>
<g>
</g>
<g>
</g>
<g>
</g>
<g>
</g>
<g>
</g>
<g>
</g>
<g>
</g>
<g>
</g>
<g>
</g>
<g>
</g>
<g>
</g>
<g>
</g>
<g>
</g>
<g>
</g>
</svg>
