<?xml version="1.0" encoding="iso-8859-1"?>
<!-- Generator: Adobe Illustrator 18.1.1, SVG Export Plug-In . SVG Version: 6.00 Build 0)  -->
<svg version="1.1" id="Capa_1" xmlns="http://www.w3.org/2000/svg" xmlns:xlink="http://www.w3.org/1999/xlink" x="0px" y="0px"
	 viewBox="0 0 32 32" style="enable-background:new 0 0 32 32;" xml:space="preserve">
<g>
	<g>
		<path style="fill:#ffffff;" d="M20,28c-0.553,0-1,0.443-1,1.01v1.98c0,0.558,0.443,1.01,1,1.01c0.553,0,1-0.443,1-1.01v-1.98
			C21,28.452,20.557,28,20,28z"/>
		<path style="fill:#ffffff;" d="M12,28c-0.553,0-1,0.443-1,1.01v1.98c0,0.558,0.444,1.01,1,1.01c0.553,0,1-0.443,1-1.01v-1.98
			C13,28.452,12.556,28,12,28z"/>
		<path style="fill:#ffffff;" d="M8,26c-0.553,0-1,0.443-1,1.01v1.98C7,29.548,7.444,30,8,30c0.553,0,1-0.443,1-1.01v-1.98
			C9,26.452,8.556,26,8,26z"/>
		<path style="fill:#030104;" d="M24,26c-0.553,0-1,0.443-1,1.01v1.98c0,0.558,0.443,1.01,1,1.01c0.553,0,1-0.443,1-1.01v-1.98
			C25,26.452,24.557,26,24,26z"/>
		<path style="fill:#ffffff;" d="M27.585,13.212c-0.376-0.999-0.991-1.882-1.774-2.577c1.152-0.949,1.945-2.318,2.143-3.874
			C27.497,6.916,27.008,7,26.5,7C24.016,7,22,4.985,22,2.5c0-0.906,0.268-1.75,0.729-2.456C22.49,0.015,22.247,0,22,0
			c-0.549,0-1.081,0.074-1.586,0.212C17.891,0.902,16.029,3.2,16,5.936C14.795,5.337,13.438,5,12,5
			c-4.904,0-8.894,3.923-8.998,8.803C1.207,14.842,0,16.783,0,19c0,3.312,2.688,6,6,6h20c3.312,0,6-2.693,6-6
			C32,16.235,30.13,13.907,27.585,13.212z M23.966,9.484C23.206,9.172,22.373,9,21.5,9c-0.632,0-1.243,0.09-1.82,0.259
			c-0.018-0.013-0.035-0.025-0.052-0.038c-0.368-0.586-0.802-1.127-1.291-1.612C18.12,7.117,18,6.572,18,6
			c0-1.48,0.805-2.773,2-3.465c0.016,3.009,2.077,5.535,4.863,6.257C24.6,9.063,24.298,9.297,23.966,9.484z"/>
		<path style="fill:#ffffff;" d="M16,26c-0.553,0-1,0.443-1,1.01v1.98c0,0.558,0.444,1.01,1,1.01c0.553,0,1-0.443,1-1.01v-1.98
			C17,26.452,16.557,26,16,26z"/>
	</g>
</g>
<g>
</g>
<g>
</g>
<g>
</g>
<g>
</g>
<g>
</g>
<g>
</g>
<g>
</g>
<g>
</g>
<g>
</g>
<g>
</g>
<g>
</g>
<g>
</g>
<g>
</g>
<g>
</g>
<g>
</g>
</svg>
