<?xml version="1.0" encoding="iso-8859-1"?>
<!-- Generator: Adobe Illustrator 16.0.0, SVG Export Plug-In . SVG Version: 6.00 Build 0)  -->
<!DOCTYPE svg PUBLIC "-//W3C//DTD SVG 1.1//EN" "http://www.w3.org/Graphics/SVG/1.1/DTD/svg11.dtd">
<svg version="1.1" id="Capa_1" xmlns="http://www.w3.org/2000/svg" xmlns:xlink="http://www.w3.org/1999/xlink" x="0px" y="0px" viewBox="0 0 107.736 107.736" style="enable-background:new 0 0 107.736 107.736;"
	 xml:space="preserve">
<g>
	<g id="Cloud__x2B__Moon__x2B__Thunder">
		<g>
			<path style="fill:#ffffff;" d="M102.663,25.463c0-0.125-0.007-0.245-0.018-0.36c-0.018-1.129-0.744-2.127-1.815-2.498
				c-1.073-0.371-2.265-0.035-2.979,0.842c-2.76,3.371-6.844,5.303-11.199,5.303c-7.969,0-14.451-6.451-14.451-14.376
				c0-3.657,1.398-7.153,3.941-9.842c0.781-0.822,0.959-2.041,0.447-3.05c-0.51-1.008-1.599-1.609-2.729-1.459
				C60.263,1.617,51.13,11.117,51.13,23.673c0,0.165,0.021,0.326,0.049,0.482c-6.049,0.551-11.533,3.801-14.898,8.776
				c-2.127-1.249-4.558-1.916-7.086-1.916c-7.699,0-13.964,6.229-13.964,13.89c0,0.597,0.037,1.193,0.112,1.78
				c-6.16,2.534-10.27,8.513-10.27,15.334c0,9.034,7.175,15.847,16.69,15.847h13.82l-9.572,11.888
				c-0.216,0.271-0.258,0.637-0.11,0.943c0.146,0.311,0.459,0.511,0.803,0.516l9.023,0.111l-11.416,14.978
				c-0.258,0.336-0.243,0.808,0.038,1.123c0.175,0.206,0.426,0.312,0.68,0.312c0.147,0,0.298-0.034,0.437-0.109L62.558,87.2
				c0.361-0.201,0.539-0.612,0.438-1.01c-0.102-0.392-0.457-0.672-0.867-0.672l-11.322-0.061l5.218-7.594h10.967
				c9.204,0,16.691-7.449,16.691-16.608c0-3.955-1.449-7.67-3.875-10.582C92.429,48.462,102.663,37.632,102.663,25.463z
				 M66.99,72.486H21.763c-6.436,0-11.288-4.499-11.288-10.468c0-5.227,3.563-9.716,8.667-10.925
				c0.737-0.171,1.369-0.646,1.738-1.309c0.368-0.658,0.438-1.445,0.198-2.162c-0.296-0.868-0.446-1.786-0.446-2.719
				c0-4.695,3.842-8.513,8.562-8.513c2.268,0,4.407,0.873,6.02,2.458c0.63,0.617,1.52,0.903,2.391,0.732
				c0.867-0.16,1.602-0.732,1.969-1.529c2.387-5.237,7.656-8.613,13.428-8.613c8.127,0,14.739,6.576,14.739,14.662
				c0,0.732-0.208,2.327-0.342,3.16c-0.221,1.399,0.689,2.733,2.078,3.039c5.101,1.139,8.802,5.744,8.802,10.955
				C78.278,67.452,73.216,72.486,66.99,72.486z M75.095,45.723c-0.492,0-0.945,0.141-1.344,0.369
				c-0.236-0.105-0.471-0.215-0.713-0.31c0.059-0.592,0.104-1.188,0.104-1.68c0-9.887-7.236-18.101-16.713-19.727
				c0.062-0.226,0.104-0.458,0.104-0.703c0-7.675,4.524-13.89,11.74-16.769c-0.97,2.347-1.478,4.88-1.478,7.469
				c0,10.89,8.905,19.753,19.854,19.753c3.341,0,6.562-0.828,9.42-2.363C93.022,39.688,84.523,45.723,75.095,45.723z"/>
		</g>
	</g>
</g>
<g>
</g>
<g>
</g>
<g>
</g>
<g>
</g>
<g>
</g>
<g>
</g>
<g>
</g>
<g>
</g>
<g>
</g>
<g>
</g>
<g>
</g>
<g>
</g>
<g>
</g>
<g>
</g>
<g>
</g>
</svg>
