<?xml version="1.0" encoding="iso-8859-1"?>
<!-- Generator: Adobe Illustrator 16.0.0, SVG Export Plug-In . SVG Version: 6.00 Build 0)  -->
<!DOCTYPE svg PUBLIC "-//W3C//DTD SVG 1.1//EN" "http://www.w3.org/Graphics/SVG/1.1/DTD/svg11.dtd">
<svg version="1.1" id="Capa_1" xmlns="http://www.w3.org/2000/svg" xmlns:xlink="http://www.w3.org/1999/xlink" x="0px" y="0px" viewBox="0 0 444.131 444.131" style="enable-background:new 0 0 444.131 444.131;"
	 xml:space="preserve">
<g>
	<g>
		<path style="fill:#ffffff;" d="M375.771,103.226c1.137-5.199,1.736-10.559,1.736-16.04c0-47.913-45.389-86.754-101.377-86.754
			c-39.921,0-74.447,19.749-90.979,48.451c-3.419-0.298-6.888-0.451-10.398-0.451c-41.397,0-76.993,21.236-92.738,51.671
			C35.289,107.836,0,143.023,0,185.27c0,47.913,45.388,86.754,101.377,86.754h241.377c55.988,0,101.377-38.841,101.377-86.754
			C444.131,147.25,415.551,114.945,375.771,103.226z"/>
		<polygon points="289.232,280.023 203.678,371.373 279.623,371.373 239.523,443.699 327.887,347.631 251.941,347.631 		"/>
		<polygon points="168.739,294.847 116.246,350.895 162.842,350.895 138.239,395.271 192.454,336.326 145.858,336.326 		"/>
	</g>
</g>
<g>
</g>
<g>
</g>
<g>
</g>
<g>
</g>
<g>
</g>
<g>
</g>
<g>
</g>
<g>
</g>
<g>
</g>
<g>
</g>
<g>
</g>
<g>
</g>
<g>
</g>
<g>
</g>
<g>
</g>
</svg>
