<?xml version="1.0" encoding="iso-8859-1"?>
<!-- Generator: Adobe Illustrator 16.0.0, SVG Export Plug-In . SVG Version: 6.00 Build 0)  -->
<!DOCTYPE svg PUBLIC "-//W3C//DTD SVG 1.1//EN" "http://www.w3.org/Graphics/SVG/1.1/DTD/svg11.dtd">
<svg version="1.1" id="Capa_1" xmlns="http://www.w3.org/2000/svg" xmlns:xlink="http://www.w3.org/1999/xlink" x="0px" y="0px" viewBox="0 0 51.619 51.619" style="enable-background:new 0 0 51.619 51.619;"
	 xml:space="preserve">
<g>
	<g>
		<g>
			<path style="fill:#ffffff;" d="M12.037,10.25c2.002,0,3.625-1.623,3.625-3.625C15.662,4.042,12.037,0,12.037,0S8.412,4.042,8.412,6.625
				C8.412,8.627,10.035,10.25,12.037,10.25z"/>
			<path d="M5.598,4.036C5.598,2.463,3.389,0,3.389,0S1.181,2.463,1.181,4.036c0,1.22,0.989,2.209,2.208,2.209
				S5.598,5.256,5.598,4.036z"/>
			<path d="M28.674,2.881V2.627c0-0.957-0.796-1.733-1.775-1.733c-0.981,0-1.776,0.776-1.776,1.733v0.256
				C22.374,3.09,19.769,3.79,17.365,4.86c0.185,0.599,0.298,1.195,0.298,1.764c0,3.102-2.523,5.625-5.625,5.625
				c-1.172,0-2.26-0.361-3.162-0.976C5.51,15.3,3.449,20.456,3.395,26.104c0.062-3.19,2.665-5.763,5.872-5.763
				c3.248,0,5.88,2.632,5.88,5.878c0-3.247,2.632-5.878,5.878-5.878c1.226,0,2.363,0.376,3.305,1.017v23.368
				c0,3.742,3,6.8,6.721,6.892l0.172,0.002v-0.002c3.722-0.092,6.721-3.146,6.721-6.892c0-1.381-1.117-2.5-2.5-2.5
				c-1.381,0-2.5,1.119-2.5,2.5c0,1.016-0.803,1.847-1.807,1.892c-1.004-0.045-1.808-0.876-1.808-1.892V21.471
				c0.971-0.706,2.161-1.128,3.452-1.128c3.248,0,5.88,2.632,5.88,5.877c0-3.246,2.633-5.877,5.879-5.877
				c3.248,0,5.879,2.632,5.879,5.877c0,0.039,0.02,0.114,0.02,0.114C50.437,13.934,40.843,3.783,28.674,2.881z"/>
		</g>
	</g>
</g>
<g>
</g>
<g>
</g>
<g>
</g>
<g>
</g>
<g>
</g>
<g>
</g>
<g>
</g>
<g>
</g>
<g>
</g>
<g>
</g>
<g>
</g>
<g>
</g>
<g>
</g>
<g>
</g>
<g>
</g>
</svg>
