<?xml version="1.0" encoding="iso-8859-1"?>
<!-- Generator: Adobe Illustrator 18.1.1, SVG Export Plug-In . SVG Version: 6.00 Build 0)  -->
<svg version="1.1" id="Capa_1" xmlns="http://www.w3.org/2000/svg" xmlns:xlink="http://www.w3.org/1999/xlink" x="0px" y="0px"
	 viewBox="0 0 25.627 25.627" style="enable-background:new 0 0 25.627 25.627;" xml:space="preserve">
<g>
	<path style="fill:#ffffff;" d="M21.846,8.537c-0.717-1.924-2.6-3.259-4.713-3.259c-0.735,0-1.447,0.156-2.101,0.458
		c-1.176-1.518-3.002-2.427-4.972-2.427c-3.152,0-5.781,2.333-6.21,5.351C1.606,9.276,0,11.311,0,13.692
		c0,2.665,2.021,4.87,4.623,5.186c0.745,2.033,2.715,3.44,4.953,3.44c1.496,0,2.9-0.63,3.885-1.698
		c0.788,0.564,1.739,0.875,2.736,0.875c2.09,0,3.864-1.335,4.468-3.233c2.736-0.006,4.962-2.217,4.962-4.933
		C25.626,11.022,24.042,9.07,21.846,8.537z M20.058,16.203l-1.082-0.209l-0.104,1.098c-0.128,1.369-1.278,2.402-2.675,2.402
		c-0.82,0-1.587-0.365-2.102-1.002l-0.933-1.154l-0.719,1.299c-0.575,1.036-1.674,1.681-2.868,1.681
		c-1.56,0-2.908-1.094-3.207-2.602l-0.16-0.806h-0.82l-0.119,0.006c-1.802,0-3.268-1.446-3.268-3.225
		c0-1.644,1.246-3.02,2.897-3.202l0.885-0.098l0.006-0.89c0.015-2.312,1.932-4.193,4.272-4.193c1.585,0,3.032,0.86,3.776,2.246
		l0.55,1.022l0.93-0.695c0.528-0.395,1.156-0.604,1.816-0.604c1.415,0,2.658,0.988,2.954,2.351l0.154,0.708l0.722,0.073
		c1.518,0.155,2.663,1.41,2.664,2.918C23.627,15.138,21.927,16.561,20.058,16.203z"/>
</g>
<g>
</g>
<g>
</g>
<g>
</g>
<g>
</g>
<g>
</g>
<g>
</g>
<g>
</g>
<g>
</g>
<g>
</g>
<g>
</g>
<g>
</g>
<g>
</g>
<g>
</g>
<g>
</g>
<g>
</g>
</svg>
