<?xml version="1.0" encoding="iso-8859-1"?>
<!-- Generator: Adobe Illustrator 16.0.0, SVG Export Plug-In . SVG Version: 6.00 Build 0)  -->
<!DOCTYPE svg PUBLIC "-//W3C//DTD SVG 1.1//EN" "http://www.w3.org/Graphics/SVG/1.1/DTD/svg11.dtd">
<svg version="1.1" id="Capa_1" xmlns="http://www.w3.org/2000/svg" xmlns:xlink="http://www.w3.org/1999/xlink" x="0px" y="0px"
	 width="614.719px" height="614.719px" viewBox="0 0 614.719 614.719" style="enable-background:new 0 0 614.719 614.719;"
	 xml:space="preserve">
<g>
	<g>
		<path style="fill:#ffffff;" d="M402.643,151.788l51.103-51.109c6.015-6.028,6.31-16.224-0.603-23.149c-6.016-5.964-17.007-6.477-23.445,0l-50.5,51.109
			c-6.438,6.541-6.912,16.224,0,23.15C386.11,158.713,395.729,158.713,402.643,151.788z"/>
		<path style="fill:#ffffff;" d="M265.879,105.232c9.317,0,16.833-7.567,16.833-16.865V16.544C282.712,7.182,275.197,0,265.879,0
			c-9.318,0-16.532,7.182-16.532,16.544v71.822C249.341,97.665,256.555,105.232,265.879,105.232z"/>
		<path style="fill:#ffffff;" d="M130.007,151.788c6.958,6.861,16.77,7.118,23.445,0c6.259-6.669,6.015-17.122,0-23.15L102.35,77.529
			c-6.015-5.964-16.532-5.964-23.445,0c-6.913,7.246-6.816,17.058,0,23.791L130.007,151.788z"/>
		<path style="fill:#ffffff;" d="M17.888,281.965l72.143-0.898c9.318-0.128,16.532-7.246,16.532-16.545c0-9.298-7.214-16.544-16.532-16.544H17.888
			c-9.317,0.898-16.532,7.823-16.532,17.122C1.356,273.821,8.571,282.093,17.888,281.965z"/>
		<path style="fill:#ffffff;" d="M594.722,393.738c-12.325-22.509-28.857-40.528-49.897-54.059c-5.111-38.22-20.533-70.54-45.991-97.409
			c-29.852-31.486-70.341-48.993-113.325-48.993h-12.325c-11.723-17.442-27.35-31.294-46.293-41.49
			c-18.937-10.196-39.079-15.327-61.023-15.327c-35.468,0-65.903,12.569-91.079,37.579c-25.022,24.881-37.572,55.021-37.572,90.483
			c0,13.531,6.015,33.987,18.033,61.625c-17.135,14.108-29.46,32.448-36.373,54.7h-6.9c-30.357,0-56.508,11.415-78.151,34.244
			c-21.643,22.893-32.467,50.531-32.467,82.659c0,28.856,8.862,53.994,26.452,75.798c17.885,22.123,40.259,35.526,67.635,39.95
			c6.297,1.026,11.421,1.219,14.73,1.219h288.269h17.135H476.6c8.118,0,14.729-0.641,19.539-1.795
			c33.667-4.81,61.812-21.482,84.462-49.955c21.835-27.382,32.762-59.51,32.762-95.869
			C613.356,440.936,607.046,416.311,594.722,393.738z M198.848,197.51c18.564-18.468,40.881-27.703,67.032-27.703
			c27.953,0,51.699,10.26,70.937,30.652c-47.191,15.968-85.064,54.123-102.199,103.437c-6.31-0.898-11.421-1.218-14.73-1.218
			c-12.928,0-25.253,2.437-37.572,7.502c-7.516-13.53-11.12-28.536-11.12-45.658C171.19,238.359,180.437,215.722,198.848,197.51z
			 M554.443,542.576c-17.135,21.354-38.477,33.923-64.325,37.835c-2.405,0.897-6.913,1.219-13.524,1.219H415.57h-17.135H110.173
			c-2.405,0-6.913-0.577-9.017-0.577c-18.937-3.015-34.571-12.312-47.492-28.28c-12.928-15.903-19.238-34.243-19.238-55.021
			c0-23.15,7.432-43.029,22.547-59.189c15.25-16.288,33.667-24.368,55.008-24.368c12.928,0,24.952,3.015,36.373,9.362
			c-0.301-2.116-0.603-5.13-0.603-9.362c0-21.354,6.913-39.694,21.04-55.021c14.127-15.326,30.96-23.149,51.103-23.149
			c13.826,0,26.452,3.911,38.175,11.735c3.905-34.244,17.808-63.037,42.08-86.251c24.426-23.342,52.604-35.142,85.365-35.142
			c34.571,0,64.326,13.21,88.977,39.374c24.65,26.1,37.571,57.714,38.476,94.972c20.143,8.4,36.071,22.252,48.396,41.49
			s18.636,40.849,18.636,64.896C579.991,496.276,571.578,521.222,554.443,542.576z"/>
	</g>
</g>
<g>
</g>
<g>
</g>
<g>
</g>
<g>
</g>
<g>
</g>
<g>
</g>
<g>
</g>
<g>
</g>
<g>
</g>
<g>
</g>
<g>
</g>
<g>
</g>
<g>
</g>
<g>
</g>
<g>
</g>
</svg>
